# xmcd
#
# Track frame offsets:
#	150
#	16473
#	32293
#	55999
#	92489
#	118530
#	142608
#	157601
#	173479
#	194089
#	210019
#	226677
#	247125
#	267068
#	286186
#	312917
#	328772
#
# Disc length: 4634 seconds
#
# Revision: 0
# Processed by: cddbd v1.5.2PL0 Copyright (c) Steve Scherf et al.
# Submitted via: dBpowerAMP V4.0
#
DISCID=ce121811
DTITLE=Various Artist - Karine Dumont
DYEAR=1900
DGENRE=
TTITLE0=Angel Forest Crossroads
TTITLE1=Angel Forest Mama Treats
TTITLE2=3
TTITLE3=4
TTITLE4=5
TTITLE5=6
TTITLE6=7
TTITLE7=Karine Dumont - Nanette Workmen Hound Dog
TTITLE8=9
TTITLE9=10
TTITLE10=11
TTITLE11=12
TTITLE12=13
TTITLE13=14
TTITLE14=15
TTITLE15=Johnny Lang Hit the ground running
TTITLE16=Johnny Lang There got to be a change
EXTD=
EXTT0=
EXTT1=
EXTT2=
EXTT3=
EXTT4=
EXTT5=
EXTT6=
EXTT7=
EXTT8=
EXTT9=
EXTT10=
EXTT11=
EXTT12=
EXTT13=
EXTT14=
EXTT15=
EXTT16=
PLAYORDER=
